<svg width="171" height="36" viewBox="0 0 171 36" fill="none" xmlns="http://www.w3.org/2000/svg">
<path fill-rule="evenodd" clip-rule="evenodd" d="M27.8333 18C27.8333 25.0877 22.0877 30.8333 15 30.8333C7.91234 30.8333 2.16666 25.0877 2.16666 18C2.16666 10.9123 7.91234 5.16666 15 5.16666C22.0877 5.16666 27.8333 10.9123 27.8333 18ZM30 18C30 26.2843 23.2843 33 15 33C6.71573 33 0 26.2843 0 18C0 9.71573 6.71573 3 15 3C23.2843 3 30 9.71573 30 18ZM23.2759 11.2759C23.2759 12.1329 22.5812 12.8276 21.7242 12.8276C20.8672 12.8276 20.1725 12.1329 20.1725 11.2759C20.1725 10.4189 20.8672 9.72418 21.7242 9.72418C22.5812 9.72418 23.2759 10.4189 23.2759 11.2759ZM10.4879 19.209C11.1556 21.7009 13.717 23.1797 16.2089 22.512C18.7008 21.8443 20.1796 19.2829 19.5119 16.791C18.8442 14.2991 16.2828 12.8203 13.7909 13.488C11.299 14.1557 9.82015 16.7171 10.4879 19.209ZM8.39503 19.7698C9.37244 23.4175 13.1219 25.5823 16.7696 24.6049C20.4174 23.6274 22.5821 19.878 21.6047 16.2302C20.6273 12.5825 16.8779 10.4177 13.2301 11.3952C9.58236 12.3726 7.41762 16.122 8.39503 19.7698Z" fill="url(#paint0_linear_6_13)"/>
<path d="M46.8501 13.1429C46.7423 12.2381 46.3052 11.5357 45.5388 11.0357C44.7723 10.5357 43.8322 10.2857 42.7185 10.2857C41.9041 10.2857 41.1915 10.4167 40.5808 10.6786C39.976 10.9405 39.5029 11.3006 39.1616 11.7589C38.8263 12.2173 38.6586 12.7381 38.6586 13.3214C38.6586 13.8096 38.7754 14.2292 39.0089 14.5804C39.2484 14.9256 39.5538 15.2143 39.9251 15.4465C40.2963 15.6726 40.6856 15.8601 41.0927 16.009C41.4999 16.1518 41.8742 16.2679 42.2155 16.3572L44.0837 16.8572C44.5627 16.9822 45.0957 17.1548 45.6825 17.375C46.2753 17.5953 46.8411 17.8959 47.3801 18.2768C47.9249 18.6518 48.374 19.134 48.7273 19.7233C49.0806 20.3125 49.2573 21.0358 49.2573 21.8929C49.2573 22.881 48.9968 23.7739 48.4758 24.5715C47.9609 25.3691 47.2064 26.003 46.2124 26.4733C45.2244 26.9435 44.0238 27.1786 42.6107 27.1786C41.2933 27.1786 40.1526 26.9673 39.1886 26.5447C38.2305 26.1221 37.476 25.5328 36.9251 24.7768C36.3802 24.0209 36.0719 23.1429 36 22.1429H38.2994C38.3592 22.8334 38.5928 23.4048 38.9999 23.8572C39.4131 24.3036 39.9341 24.637 40.5628 24.8572C41.1975 25.0715 41.8801 25.1786 42.6107 25.1786C43.4609 25.1786 44.2244 25.0417 44.901 24.7679C45.5777 24.4882 46.1136 24.1013 46.5088 23.6072C46.904 23.1072 47.1016 22.5239 47.1016 21.8572C47.1016 21.25 46.931 20.756 46.5896 20.375C46.2483 19.9941 45.7992 19.6846 45.2424 19.4465C44.6855 19.2084 44.0837 19 43.437 18.8215L41.1736 18.1786C39.7365 17.7679 38.5988 17.1816 37.7605 16.4197C36.9221 15.6578 36.503 14.6607 36.503 13.4286C36.503 12.4048 36.7814 11.5119 37.3383 10.75C37.9012 9.98215 38.6556 9.38691 39.6017 8.96429C40.5538 8.53572 41.6167 8.32143 42.7903 8.32143C43.9759 8.32143 45.0298 8.53274 45.9519 8.95536C46.8741 9.37203 47.6046 9.94346 48.1435 10.6697C48.6884 11.3958 48.9758 12.2202 49.0058 13.1429H46.8501ZM54.7519 18.6072V26.8572H52.6322V13.1429H54.6801V15.2857H54.8597C55.1831 14.5893 55.6741 14.0298 56.3328 13.6072C56.9915 13.1786 57.8417 12.9643 58.8836 12.9643C59.8177 12.9643 60.6351 13.1548 61.3357 13.5357C62.0361 13.9107 62.5812 14.4822 62.9703 15.25C63.3596 16.0119 63.5541 16.9762 63.5541 18.1429V26.8572H61.4344V18.2858C61.4344 17.2084 61.153 16.3691 60.5902 15.7679C60.0272 15.1607 59.2548 14.8572 58.2728 14.8572C57.5962 14.8572 56.9915 15.003 56.4584 15.2947C55.9315 15.5863 55.5154 16.0119 55.21 16.5715C54.9046 17.131 54.7519 17.8096 54.7519 18.6072ZM71.4875 27.1786C70.6132 27.1786 69.8198 27.0149 69.1072 26.6876C68.3946 26.3542 67.8289 25.8751 67.4096 25.2501C66.9904 24.6191 66.7809 23.8572 66.7809 22.9644C66.7809 22.1786 66.9367 21.5417 67.248 21.0536C67.5593 20.5596 67.9756 20.1727 68.4964 19.8929C69.0174 19.6131 69.5922 19.4048 70.2209 19.2679C70.8558 19.125 71.4934 19.0119 72.1341 18.9286C72.9724 18.8215 73.6522 18.7411 74.173 18.6875C74.6999 18.628 75.0831 18.5298 75.3228 18.3929C75.5681 18.256 75.691 18.0179 75.691 17.6786V17.6072C75.691 16.7262 75.4484 16.0417 74.9634 15.5536C74.4843 15.0655 73.7569 14.8215 72.7808 14.8215C71.7689 14.8215 70.9755 15.0417 70.4005 15.4822C69.8257 15.9226 69.4217 16.3929 69.1882 16.8929L67.1761 16.1786C67.5355 15.3453 68.0143 14.6964 68.6132 14.2322C69.2181 13.7619 69.8768 13.4345 70.5892 13.25C71.3077 13.0595 72.0144 12.9643 72.7089 12.9643C73.152 12.9643 73.661 13.0179 74.2358 13.125C74.8167 13.2262 75.3765 13.4375 75.9155 13.759C76.4603 14.0804 76.9124 14.5655 77.2718 15.2143C77.6309 15.8631 77.8107 16.7322 77.8107 17.8215V26.8572H75.691V25.0001H75.5831C75.4395 25.2977 75.1999 25.6161 74.8645 25.9554C74.5292 26.2947 74.0832 26.5834 73.5263 26.8215C72.9694 27.0596 72.2897 27.1786 71.4875 27.1786ZM71.8108 25.2858C72.6491 25.2858 73.3556 25.1221 73.9306 24.7947C74.5113 24.4673 74.9484 24.0447 75.2418 23.5268C75.5413 23.009 75.691 22.4643 75.691 21.8929V19.9643C75.6012 20.0715 75.4035 20.1697 75.0981 20.259C74.7988 20.3423 74.4514 20.4167 74.0562 20.4822C73.6671 20.5417 73.2869 20.5953 72.9155 20.6429C72.5502 20.6846 72.2539 20.7203 72.0262 20.7501C71.4755 20.8215 70.9606 20.9376 70.4815 21.0983C70.0085 21.253 69.6251 21.4881 69.3317 21.8036C69.0444 22.1132 68.9007 22.5358 68.9007 23.0715C68.9007 23.8036 69.1732 24.3572 69.718 24.7322C70.2688 25.1013 70.9665 25.2858 71.8108 25.2858ZM81.6795 32V13.1429H83.7274V15.3215H83.9791C84.1346 15.0834 84.3502 14.7798 84.6257 14.4107C84.9071 14.0357 85.3082 13.7024 85.8292 13.4107C86.3562 13.1131 87.0688 12.9643 87.9669 12.9643C89.1285 12.9643 90.1524 13.253 91.0388 13.8304C91.9249 14.4078 92.6166 15.2262 93.1136 16.2858C93.6106 17.3453 93.8591 18.5953 93.8591 20.0358C93.8591 21.4881 93.6106 22.7471 93.1136 23.8126C92.6166 24.8721 91.928 25.6935 91.0478 26.2769C90.1674 26.8542 89.1525 27.1429 88.0028 27.1429C87.1167 27.1429 86.407 26.9971 85.8741 26.7054C85.3413 26.4078 84.9311 26.0715 84.6436 25.6965C84.3561 25.3155 84.1346 25.0001 83.9791 24.7501H83.7993V32H81.6795ZM83.7634 20C83.7634 21.0358 83.916 21.9495 84.2215 22.7411C84.5269 23.5268 84.9729 24.1429 85.5599 24.5893C86.1467 25.0298 86.8652 25.2501 87.7155 25.2501C88.6016 25.2501 89.3412 25.0179 89.9339 24.5536C90.5327 24.0834 90.9818 23.4524 91.2811 22.6608C91.5866 21.8632 91.7394 20.9762 91.7394 20C91.7394 19.0358 91.5897 18.1667 91.2902 17.3929C90.9968 16.6131 90.5508 15.9971 89.952 15.5447C89.3591 15.0863 88.6136 14.8572 87.7155 14.8572C86.8532 14.8572 86.1285 15.0744 85.5417 15.509C84.9549 15.9375 84.5119 16.5387 84.2126 17.3125C83.9131 18.0804 83.7634 18.9762 83.7634 20ZM97.3799 26.8572V8.57143H108.41V10.5357H99.6074V16.7143H107.583V18.6786H99.6074V26.8572H97.3799ZM119.767 21.25V13.1429H121.887V26.8572H119.767V24.5358H119.624C119.3 25.2322 118.797 25.8245 118.115 26.3126C117.432 26.7947 116.57 27.0358 115.528 27.0358C114.666 27.0358 113.899 26.8483 113.228 26.4733C112.558 26.0923 112.031 25.5209 111.648 24.759C111.264 23.9911 111.073 23.0239 111.073 21.8572V13.1429H113.192V21.7143C113.192 22.7143 113.474 23.512 114.037 24.1072C114.606 24.7024 115.33 25.0001 116.211 25.0001C116.737 25.0001 117.273 24.8661 117.818 24.5983C118.369 24.3304 118.83 23.9197 119.201 23.3661C119.579 22.8126 119.767 22.1072 119.767 21.25ZM135.542 16.2143L133.638 16.75C133.518 16.4346 133.341 16.128 133.108 15.8304C132.88 15.5268 132.569 15.2768 132.174 15.0804C131.778 14.884 131.272 14.7857 130.656 14.7857C129.811 14.7857 129.108 14.9792 128.545 15.3661C127.988 15.747 127.71 16.2322 127.71 16.8215C127.71 17.3453 127.901 17.759 128.284 18.0625C128.668 18.3661 129.266 18.6191 130.081 18.8215L132.129 19.3215C133.362 19.6191 134.281 20.0744 134.886 20.6876C135.491 21.2947 135.793 22.0774 135.793 23.0358C135.793 23.8215 135.566 24.5239 135.111 25.1429C134.662 25.762 134.033 26.2501 133.224 26.6072C132.416 26.9644 131.476 27.1429 130.404 27.1429C128.997 27.1429 127.832 26.8394 126.91 26.2322C125.988 25.6251 125.404 24.7382 125.159 23.5715L127.171 23.0715C127.362 23.8096 127.725 24.3632 128.257 24.7322C128.796 25.1013 129.5 25.2858 130.368 25.2858C131.356 25.2858 132.14 25.0775 132.721 24.6608C133.308 24.2382 133.602 23.7322 133.602 23.1429C133.602 22.6667 133.434 22.2679 133.099 21.9465C132.763 21.6191 132.248 21.375 131.554 21.2143L129.254 20.6786C127.991 20.381 127.063 19.9197 126.47 19.2947C125.883 18.6637 125.59 17.875 125.59 16.9286C125.59 16.1548 125.808 15.4703 126.246 14.875C126.689 14.2798 127.29 13.8125 128.051 13.4732C128.817 13.1339 129.686 12.9643 130.656 12.9643C132.021 12.9643 133.093 13.2619 133.871 13.8572C134.655 14.4524 135.212 15.2381 135.542 16.2143ZM138.984 26.8572V13.1429H141.104V26.8572H138.984ZM140.062 10.8572C139.649 10.8572 139.292 10.7173 138.993 10.4375C138.7 10.1577 138.553 9.82144 138.553 9.42858C138.553 9.03572 138.7 8.69941 138.993 8.41964C139.292 8.13988 139.649 8 140.062 8C140.475 8 140.828 8.13988 141.122 8.41964C141.421 8.69941 141.571 9.03572 141.571 9.42858C141.571 9.82144 141.421 10.1577 141.122 10.4375C140.828 10.7173 140.475 10.8572 140.062 10.8572ZM150.591 27.1429C149.345 27.1429 148.253 26.8483 147.312 26.259C146.378 25.6697 145.648 24.8453 145.121 23.7858C144.6 22.7263 144.339 21.4881 144.339 20.0715C144.339 18.6429 144.6 17.3959 145.121 16.3304C145.648 15.2649 146.378 14.4375 147.312 13.8482C148.253 13.2589 149.345 12.9643 150.591 12.9643C151.836 12.9643 152.926 13.2589 153.86 13.8482C154.8 14.4375 155.531 15.2649 156.052 16.3304C156.579 17.3959 156.842 18.6429 156.842 20.0715C156.842 21.4881 156.579 22.7263 156.052 23.7858C155.531 24.8453 154.8 25.6697 153.86 26.259C152.926 26.8483 151.836 27.1429 150.591 27.1429ZM150.591 25.2501C151.537 25.2501 152.315 25.009 152.926 24.5268C153.537 24.0447 153.989 23.4108 154.282 22.6251C154.576 21.8393 154.722 20.9881 154.722 20.0715C154.722 19.1548 154.576 18.3006 154.282 17.509C153.989 16.7173 153.537 16.0774 152.926 15.5893C152.315 15.1012 151.537 14.8572 150.591 14.8572C149.645 14.8572 148.866 15.1012 148.255 15.5893C147.645 16.0774 147.193 16.7173 146.899 17.509C146.606 18.3006 146.459 19.1548 146.459 20.0715C146.459 20.9881 146.606 21.8393 146.899 22.6251C147.193 23.4108 147.645 24.0447 148.255 24.5268C148.866 25.009 149.645 25.2501 150.591 25.2501ZM162.198 18.6072V26.8572H160.078V13.1429H162.126V15.2857H162.306C162.629 14.5893 163.12 14.0298 163.778 13.6072C164.437 13.1786 165.288 12.9643 166.329 12.9643C167.264 12.9643 168.081 13.1548 168.781 13.5357C169.482 13.9107 170.027 14.4822 170.416 15.25C170.805 16.0119 171 16.9762 171 18.1429V26.8572H168.88V18.2858C168.88 17.2084 168.599 16.3691 168.036 15.7679C167.473 15.1607 166.701 14.8572 165.719 14.8572C165.042 14.8572 164.437 15.003 163.904 15.2947C163.377 15.5863 162.961 16.0119 162.656 16.5715C162.35 17.131 162.198 17.8096 162.198 18.6072Z" fill="white"/>
<defs>
<linearGradient id="paint0_linear_6_13" x1="15" y1="3" x2="15" y2="33" gradientUnits="userSpaceOnUse">
<stop stop-color="#877EFF"/>
<stop offset="0.461458" stop-color="#685DFF"/>
<stop offset="1" stop-color="#3121FF"/>
</linearGradient>
</defs>
</svg>
